<svg width="172" height="54" viewBox="0 0 172 54" fill="none" xmlns="http://www.w3.org/2000/svg">
<g clip-path="url(#clip0)">
<rect width="172" height="53.527" rx="26.7635" fill="#212121"/>
<ellipse opacity="0.701318" cx="31.7213" cy="26.7646" rx="20.4426" ry="20.4248" stroke="white" stroke-width="0.356846"/>
<g clip-path="url(#clip1)">
<path fill-rule="evenodd" clip-rule="evenodd" d="M38.4222 23.6788L25.4664 16.6305C25.099 16.4316 24.7602 16.3854 24.4857 16.4701L35.0978 26.9686L38.4222 23.6788Z" fill="url(#paint0_linear)"/>
<path fill-rule="evenodd" clip-rule="evenodd" d="M38.4391 30.2756L42.862 27.8695C43.7588 27.3799 43.7588 26.5832 42.862 26.0948L38.4227 23.6797L35.0977 26.9695L38.4391 30.2756Z" fill="url(#paint1_linear)"/>
<path fill-rule="evenodd" clip-rule="evenodd" d="M24.485 16.4727C24.091 16.5946 23.8359 16.9893 23.8359 17.5865L23.8384 36.3811C23.8384 36.9717 24.0855 37.3604 24.468 37.4901L35.0977 26.973L24.485 16.4727Z" fill="url(#paint2_linear)"/>
<path fill-rule="evenodd" clip-rule="evenodd" d="M24.468 37.4898C24.7443 37.5823 25.0898 37.5391 25.4663 37.3348L38.4373 30.2769L35.0977 26.9727L24.468 37.4898Z" fill="url(#paint3_linear)"/>
<mask id="mask0" mask-type="alpha" maskUnits="userSpaceOnUse" x="24" y="26" width="15" height="12">
<path fill-rule="evenodd" clip-rule="evenodd" d="M24.468 37.4898C24.7443 37.5823 25.0898 37.5391 25.4663 37.3348L38.4373 30.2769L35.0977 26.9727L24.468 37.4898Z" fill="white"/>
</mask>
<g mask="url(#mask0)">
</g>
</g>
<path d="M65.2822 18.5156L64.7685 17.1006H61.9294L61.4156 18.5156H60.5233L62.8757 12.2065H63.8221L66.1745 18.5156H65.2822ZM62.2178 16.3164H64.4801L63.3444 13.2069L62.2178 16.3164ZM69.8162 14.0091H70.6635L68.8609 18.5156H67.9415L66.1389 14.0091H66.9861L68.4012 17.6774L69.8162 14.0091ZM74.882 14.0091H75.6662V18.5156H74.882V17.7405C74.4915 18.3354 73.9236 18.6328 73.1786 18.6328C72.5476 18.6328 72.0099 18.4045 71.5652 17.9478C71.1206 17.4851 70.8982 16.9233 70.8982 16.2623C70.8982 15.6014 71.1206 15.0426 71.5652 14.5859C72.0099 14.1232 72.5476 13.8919 73.1786 13.8919C73.9236 13.8919 74.4915 14.1893 74.882 14.7842V14.0091ZM73.2777 17.8757C73.7344 17.8757 74.1159 17.7225 74.4224 17.416C74.7288 17.1036 74.882 16.719 74.882 16.2623C74.882 15.8057 74.7288 15.4241 74.4224 15.1177C74.1159 14.8052 73.7344 14.649 73.2777 14.649C72.827 14.649 72.4485 14.8052 72.1421 15.1177C71.8356 15.4241 71.6824 15.8057 71.6824 16.2623C71.6824 16.719 71.8356 17.1036 72.1421 17.416C72.4485 17.7225 72.827 17.8757 73.2777 17.8757ZM77.2508 13.1889C77.1006 13.1889 76.9744 13.1378 76.8722 13.0357C76.7701 12.9335 76.719 12.8103 76.719 12.6661C76.719 12.5219 76.7701 12.3987 76.8722 12.2966C76.9744 12.1884 77.1006 12.1343 77.2508 12.1343C77.395 12.1343 77.5182 12.1884 77.6203 12.2966C77.7225 12.3987 77.7735 12.5219 77.7735 12.6661C77.7735 12.8103 77.7225 12.9335 77.6203 13.0357C77.5182 13.1378 77.395 13.1889 77.2508 13.1889ZM76.8542 18.5156V14.0091H77.6384V18.5156H76.8542ZM78.8346 18.5156V11.9361H79.6188V18.5156H78.8346ZM84.5465 14.0091H85.3306V18.5156H84.5465V17.7405C84.1559 18.3354 83.5881 18.6328 82.843 18.6328C82.2121 18.6328 81.6743 18.4045 81.2296 17.9478C80.785 17.4851 80.5627 16.9233 80.5627 16.2623C80.5627 15.6014 80.785 15.0426 81.2296 14.5859C81.6743 14.1232 82.2121 13.8919 82.843 13.8919C83.5881 13.8919 84.1559 14.1893 84.5465 14.7842V14.0091ZM82.9421 17.8757C83.3988 17.8757 83.7804 17.7225 84.0868 17.416C84.3932 17.1036 84.5465 16.719 84.5465 16.2623C84.5465 15.8057 84.3932 15.4241 84.0868 15.1177C83.7804 14.8052 83.3988 14.649 82.9421 14.649C82.4915 14.649 82.1129 14.8052 81.8065 15.1177C81.5 15.4241 81.3468 15.8057 81.3468 16.2623C81.3468 16.719 81.5 17.1036 81.8065 17.416C82.1129 17.7225 82.4915 17.8757 82.9421 17.8757ZM89.0063 13.8919C89.6372 13.8919 90.175 14.1232 90.6196 14.5859C91.0643 15.0426 91.2866 15.6014 91.2866 16.2623C91.2866 16.9233 91.0643 17.4851 90.6196 17.9478C90.175 18.4045 89.6372 18.6328 89.0063 18.6328C88.2612 18.6328 87.6934 18.3354 87.3028 17.7405V18.5156H86.5187V12.2065H87.3028V14.7842C87.6934 14.1893 88.2612 13.8919 89.0063 13.8919ZM88.9071 17.8757C89.3578 17.8757 89.7363 17.7225 90.0428 17.416C90.3492 17.1036 90.5024 16.719 90.5024 16.2623C90.5024 15.8057 90.3492 15.4241 90.0428 15.1177C89.7363 14.8052 89.3578 14.649 88.9071 14.649C88.4505 14.649 88.0689 14.8052 87.7625 15.1177C87.456 15.4241 87.3028 15.8057 87.3028 16.2623C87.3028 16.719 87.456 17.1036 87.7625 17.416C88.0689 17.7225 88.4505 17.8757 88.9071 17.8757ZM92.2223 18.5156V11.9361H93.0064V18.5156H92.2223ZM94.7525 16.6229C94.8306 17.0255 95.0139 17.3379 95.3023 17.5602C95.5967 17.7826 95.9572 17.8937 96.3838 17.8937C96.9787 17.8937 97.4113 17.6744 97.6817 17.2358L98.3487 17.6143C97.9101 18.2933 97.2491 18.6328 96.3658 18.6328C95.6508 18.6328 95.0679 18.4105 94.6173 17.9658C94.1726 17.5152 93.9503 16.9473 93.9503 16.2623C93.9503 15.5834 94.1696 15.0185 94.6083 14.5679C95.0469 14.1172 95.6147 13.8919 96.3117 13.8919C96.9727 13.8919 97.5105 14.1262 97.9251 14.5949C98.3457 15.0576 98.556 15.6164 98.556 16.2714C98.556 16.3855 98.547 16.5027 98.529 16.6229H94.7525ZM96.3117 14.631C95.8911 14.631 95.5426 14.7512 95.2662 14.9915C94.9898 15.2258 94.8186 15.5413 94.7525 15.9379H97.7628C97.6968 15.5113 97.5285 15.1868 97.2581 14.9645C96.9877 14.7421 96.6723 14.631 96.3117 14.631ZM105.947 18.5156L105.433 17.1006H102.594L102.08 18.5156H101.188L103.54 12.2065H104.487L106.839 18.5156H105.947ZM102.882 16.3164H105.145L104.009 13.2069L102.882 16.3164ZM109.99 13.8919C110.621 13.8919 111.159 14.1232 111.603 14.5859C112.048 15.0426 112.27 15.6014 112.27 16.2623C112.27 16.9233 112.048 17.4851 111.603 17.9478C111.159 18.4045 110.621 18.6328 109.99 18.6328C109.245 18.6328 108.677 18.3354 108.286 17.7405V20.3182H107.502V14.0091H108.286V14.7842C108.677 14.1893 109.245 13.8919 109.99 13.8919ZM109.891 17.8757C110.341 17.8757 110.72 17.7225 111.026 17.416C111.333 17.1036 111.486 16.719 111.486 16.2623C111.486 15.8057 111.333 15.4241 111.026 15.1177C110.72 14.8052 110.341 14.649 109.891 14.649C109.434 14.649 109.053 14.8052 108.746 15.1177C108.44 15.4241 108.286 15.8057 108.286 16.2623C108.286 16.719 108.44 17.1036 108.746 17.416C109.053 17.7225 109.434 17.8757 109.891 17.8757ZM115.693 13.8919C116.324 13.8919 116.862 14.1232 117.307 14.5859C117.751 15.0426 117.974 15.6014 117.974 16.2623C117.974 16.9233 117.751 17.4851 117.307 17.9478C116.862 18.4045 116.324 18.6328 115.693 18.6328C114.948 18.6328 114.381 18.3354 113.99 17.7405V20.3182H113.206V14.0091H113.99V14.7842C114.381 14.1893 114.948 13.8919 115.693 13.8919ZM115.594 17.8757C116.045 17.8757 116.424 17.7225 116.73 17.416C117.036 17.1036 117.19 16.719 117.19 16.2623C117.19 15.8057 117.036 15.4241 116.73 15.1177C116.424 14.8052 116.045 14.649 115.594 14.649C115.138 14.649 114.756 14.8052 114.45 15.1177C114.143 15.4241 113.99 15.8057 113.99 16.2623C113.99 16.719 114.143 17.1036 114.45 17.416C114.756 17.7225 115.138 17.8757 115.594 17.8757ZM124.966 17.9478C124.504 18.4045 123.942 18.6328 123.281 18.6328C122.62 18.6328 122.058 18.4045 121.595 17.9478C121.139 17.4911 120.91 16.9293 120.91 16.2623C120.91 15.5954 121.139 15.0336 121.595 14.5769C122.058 14.1202 122.62 13.8919 123.281 13.8919C123.942 13.8919 124.504 14.1202 124.966 14.5769C125.429 15.0336 125.66 15.5954 125.66 16.2623C125.66 16.9293 125.429 17.4911 124.966 17.9478ZM123.281 17.8667C123.731 17.8667 124.11 17.7135 124.416 17.407C124.723 17.1006 124.876 16.719 124.876 16.2623C124.876 15.8057 124.723 15.4241 124.416 15.1177C124.11 14.8112 123.731 14.658 123.281 14.658C122.836 14.658 122.461 14.8112 122.154 15.1177C121.848 15.4241 121.695 15.8057 121.695 16.2623C121.695 16.719 121.848 17.1006 122.154 17.407C122.461 17.7135 122.836 17.8667 123.281 17.8667ZM128.829 13.8919C129.358 13.8919 129.781 14.0601 130.1 14.3966C130.418 14.7271 130.578 15.1778 130.578 15.7486V18.5156H129.793V15.7937C129.793 15.4271 129.694 15.1447 129.496 14.9464C129.298 14.7421 129.024 14.64 128.676 14.64C128.285 14.64 127.97 14.7632 127.729 15.0095C127.489 15.2499 127.369 15.6224 127.369 16.1272V18.5156H126.585V14.0091H127.369V14.658C127.687 14.1473 128.174 13.8919 128.829 13.8919Z" fill="white"/>
<path d="M70.3437 33.9557V34.6857C70.3437 36.0377 69.911 37.1328 69.0458 37.971C68.1805 38.8092 67.0629 39.2283 65.6929 39.2283C64.2328 39.2283 63.0205 38.7551 62.0561 37.8088C61.1007 36.8534 60.623 35.6907 60.623 34.3207C60.623 32.9417 61.0962 31.7745 62.0426 30.8191C62.998 29.8637 64.1787 29.386 65.5847 29.386C66.468 29.386 67.2747 29.5888 68.0048 29.9944C68.7348 30.391 69.3026 30.9228 69.7082 31.5897L68.1129 32.5091C67.8876 32.1215 67.5451 31.806 67.0854 31.5627C66.6348 31.3193 66.13 31.1977 65.5712 31.1977C64.6699 31.1977 63.9263 31.4951 63.3405 32.09C62.7636 32.6758 62.4752 33.4194 62.4752 34.3207C62.4752 35.213 62.7682 35.9521 63.354 36.5379C63.9489 37.1148 64.733 37.4032 65.7064 37.4032C66.4275 37.4032 67.0223 37.2455 67.491 36.93C67.9687 36.6055 68.2932 36.1639 68.4644 35.6051H65.5983V33.9557H70.3437ZM79.6338 37.8088C78.6784 38.7551 77.5157 39.2283 76.1457 39.2283C74.7757 39.2283 73.613 38.7551 72.6576 37.8088C71.7113 36.8534 71.2381 35.6862 71.2381 34.3072C71.2381 32.9282 71.7113 31.7655 72.6576 30.8191C73.613 29.8637 74.7757 29.386 76.1457 29.386C77.5157 29.386 78.6784 29.8637 79.6338 30.8191C80.5892 31.7655 81.0669 32.9282 81.0669 34.3072C81.0669 35.6862 80.5892 36.8534 79.6338 37.8088ZM73.969 36.5379C74.5549 37.1148 75.2804 37.4032 76.1457 37.4032C77.011 37.4032 77.7365 37.1148 78.3224 36.5379C78.9082 35.9521 79.2011 35.2085 79.2011 34.3072C79.2011 33.4059 78.9082 32.6623 78.3224 32.0764C77.7365 31.4906 77.011 31.1977 76.1457 31.1977C75.2804 31.1977 74.5549 31.4906 73.969 32.0764C73.3832 32.6623 73.0903 33.4059 73.0903 34.3072C73.0903 35.2085 73.3832 35.9521 73.969 36.5379ZM90.3412 37.8088C89.3858 38.7551 88.2232 39.2283 86.8532 39.2283C85.4832 39.2283 84.3205 38.7551 83.3651 37.8088C82.4187 36.8534 81.9455 35.6862 81.9455 34.3072C81.9455 32.9282 82.4187 31.7655 83.3651 30.8191C84.3205 29.8637 85.4832 29.386 86.8532 29.386C88.2232 29.386 89.3858 29.8637 90.3412 30.8191C91.2966 31.7655 91.7743 32.9282 91.7743 34.3072C91.7743 35.6862 91.2966 36.8534 90.3412 37.8088ZM84.6765 36.5379C85.2624 37.1148 85.9879 37.4032 86.8532 37.4032C87.7184 37.4032 88.444 37.1148 89.0298 36.5379C89.6157 35.9521 89.9086 35.2085 89.9086 34.3072C89.9086 33.4059 89.6157 32.6623 89.0298 32.0764C88.444 31.4906 87.7184 31.1977 86.8532 31.1977C85.9879 31.1977 85.2624 31.4906 84.6765 32.0764C84.0906 32.6623 83.7977 33.4059 83.7977 34.3072C83.7977 35.2085 84.0906 35.9521 84.6765 36.5379ZM102.374 33.9557V34.6857C102.374 36.0377 101.941 37.1328 101.076 37.971C100.21 38.8092 99.0928 39.2283 97.7229 39.2283C96.2627 39.2283 95.0505 38.7551 94.0861 37.8088C93.1307 36.8534 92.653 35.6907 92.653 34.3207C92.653 32.9417 93.1262 31.7745 94.0726 30.8191C95.0279 29.8637 96.2087 29.386 97.6147 29.386C98.498 29.386 99.3047 29.5888 100.035 29.9944C100.765 30.391 101.333 30.9228 101.738 31.5897L100.143 32.5091C99.9175 32.1215 99.5751 31.806 99.1154 31.5627C98.6647 31.3193 98.16 31.1977 97.6012 31.1977C96.6999 31.1977 95.9563 31.4951 95.3704 32.09C94.7936 32.6758 94.5052 33.4194 94.5052 34.3207C94.5052 35.213 94.7981 35.9521 95.384 36.5379C95.9788 37.1148 96.763 37.4032 97.7364 37.4032C98.4574 37.4032 99.0523 37.2455 99.521 36.93C99.9987 36.6055 100.323 36.1639 100.494 35.6051H97.6282V33.9557H102.374ZM105.566 37.2545H109.176V39.0391H103.701V29.5753H105.566V37.2545ZM112.102 37.2545H116.09V39.0391H110.236V29.5753H116.022V31.3599H112.102V33.3743H115.684V35.1319H112.102V37.2545ZM124.314 29.5753C125.224 29.5753 125.99 29.8818 126.612 30.4946C127.234 31.1075 127.545 31.8601 127.545 32.7524C127.545 33.6447 127.234 34.3973 126.612 35.0102C125.99 35.6231 125.224 35.9295 124.314 35.9295H122.651V39.0391H120.785V29.5753H124.314ZM124.314 34.1855C124.71 34.1855 125.039 34.0503 125.301 33.7799C125.562 33.5005 125.693 33.158 125.693 32.7524C125.693 32.3378 125.562 31.9953 125.301 31.7249C125.039 31.4545 124.71 31.3193 124.314 31.3193H122.651V34.1855H124.314ZM130.625 37.2545H134.235V39.0391H128.76V29.5753H130.625V37.2545ZM141.643 39.0391L141.075 37.3356H137.303L136.735 39.0391H134.721L138.033 29.5753H140.345L143.671 39.0391H141.643ZM137.898 35.5916H140.494L139.196 31.7249L137.898 35.5916ZM150.852 29.5753L147.607 35.3482V39.0391H145.755V35.3482L142.524 29.5753H144.633L146.688 33.523L148.743 29.5753H150.852Z" fill="white"/>
</g>
<defs>
<linearGradient id="paint0_linear" x1="18.1959" y1="15.3638" x2="22.4259" y2="29.7363" gradientUnits="userSpaceOnUse">
<stop stop-color="#19A3B4"/>
<stop offset="0.348168" stop-color="#5BC3AF"/>
<stop offset="0.922336" stop-color="#C8F7A6"/>
<stop offset="1" stop-color="#D7FEA5"/>
</linearGradient>
<linearGradient id="paint1_linear" x1="24.2193" y1="19.0922" x2="29.0887" y2="34.9851" gradientUnits="userSpaceOnUse">
<stop stop-color="#FC227C"/>
<stop offset="1" stop-color="#FEEB7B"/>
</linearGradient>
<linearGradient id="paint2_linear" x1="21.5044" y1="15.4648" x2="28.6479" y2="34.1303" gradientUnits="userSpaceOnUse">
<stop stop-color="#0E4DA0"/>
<stop offset="1" stop-color="#6BFED4"/>
</linearGradient>
<linearGradient id="paint3_linear" x1="35.2694" y1="22.0419" x2="21.9301" y2="37.3854" gradientUnits="userSpaceOnUse">
<stop stop-color="#FC472E"/>
<stop offset="0.00331892" stop-color="#FC472F"/>
<stop offset="1" stop-color="#893CD8"/>
</linearGradient>
<clipPath id="clip0">
<rect width="172" height="53.527" fill="white"/>
</clipPath>
<clipPath id="clip1">
<rect width="19.9834" height="21.4108" fill="white" transform="translate(23.5519 16.4141)"/>
</clipPath>
</defs>
</svg>
