<svg width="144" height="37" viewBox="0 0 144 37" fill="none" xmlns="http://www.w3.org/2000/svg">
<path d="M15.833 14.32C19.235 14.32 21.993 11.5621 21.993 8.16C21.993 4.75793 19.235 2 15.833 2C12.4309 2 9.67297 4.75793 9.67297 8.16C9.67297 11.5621 12.4309 14.32 15.833 14.32Z" fill="#333CC1"/>
<path d="M32 19.3591L23.5616 27.7975L15.8822 20.1168L24.3193 11.6797L32 19.3591Z" fill="#FFD43C"/>
<path d="M15.8818 20.1224L8.30286 27.6992L15.9821 35.3806L23.5611 27.8038L15.8818 20.1224Z" fill="#FDA741"/>
<path d="M7.57789 11.8166L0 19.3945L8.30447 27.699L15.8824 20.1211L7.57789 11.8166Z" fill="#1D6AFF"/>
<path d="M48.2693 18.3973C49.2289 18.3973 49.9932 18.7097 50.5622 19.3345C51.1424 19.9594 51.4325 20.7962 51.4325 21.8451V27H49.2735V21.9957C49.2735 21.4936 49.1508 21.1031 48.9053 20.8241C48.6598 20.5452 48.3139 20.4057 47.8676 20.4057C47.3766 20.4057 46.9917 20.5675 46.7128 20.8911C46.445 21.2146 46.3111 21.6833 46.3111 22.2969V27H44.152V21.9957C44.152 21.4936 44.0293 21.1031 43.7838 20.8241C43.5383 20.5452 43.1924 20.4057 42.7461 20.4057C42.2663 20.4057 41.8814 20.5675 41.5913 20.8911C41.3123 21.2146 41.1729 21.6833 41.1729 22.2969V27H39.0138V18.6316H41.1729V19.5186C41.675 18.7711 42.4504 18.3973 43.4993 18.3973C44.5258 18.3973 45.2845 18.7989 45.7755 19.6023C46.3334 18.7989 47.1646 18.3973 48.2693 18.3973ZM58.5427 18.6316H60.8524L57.8063 27C57.3711 28.2051 56.7909 29.0754 56.0656 29.6109C55.3515 30.1577 54.4589 30.4032 53.3877 30.3474V28.3389C53.968 28.3501 54.4254 28.2274 54.7602 27.9707C55.1061 27.7141 55.3794 27.3013 55.5803 26.7322L52.1492 18.6316H54.5091L56.6849 24.2552L58.5427 18.6316ZM67.5369 27.2343C65.774 27.2343 64.3179 26.6485 63.1686 25.4769C62.0193 24.3054 61.4447 22.8604 61.4447 21.1421C61.4447 19.4126 62.0193 17.9677 63.1686 16.8073C64.3179 15.6357 65.774 15.0499 67.5369 15.0499C68.5969 15.0499 69.5732 15.3009 70.4659 15.8031C71.3697 16.294 72.0726 16.9635 72.5747 17.8115L70.583 18.9663C70.2929 18.4419 69.8801 18.0346 69.3445 17.7445C68.8089 17.4433 68.2064 17.2926 67.5369 17.2926C66.3988 17.2926 65.4783 17.6497 64.7753 18.3638C64.0835 19.0779 63.7377 20.004 63.7377 21.1421C63.7377 22.2691 64.0835 23.1896 64.7753 23.9037C65.4783 24.6178 66.3988 24.9748 67.5369 24.9748C68.2064 24.9748 68.8089 24.8298 69.3445 24.5397C69.8912 24.2384 70.3041 23.8312 70.583 23.3179L72.5747 24.4727C72.0726 25.3207 71.3752 25.9958 70.4826 26.4979C69.59 26.9888 68.6081 27.2343 67.5369 27.2343ZM79.547 18.6316H81.7061V27H79.547V26.0627C79.0226 26.8438 78.1914 27.2343 77.0532 27.2343C76.1383 27.2343 75.3796 26.9275 74.777 26.3138C74.1857 25.7001 73.89 24.8521 73.89 23.7698V18.6316H76.049V23.502C76.049 24.0599 76.1997 24.4895 76.5009 24.7907C76.8022 25.0808 77.2039 25.2259 77.706 25.2259C78.2639 25.2259 78.7102 25.0529 79.0449 24.7071C79.3797 24.3612 79.547 23.8423 79.547 23.1505V18.6316ZM85.6098 21.0082C85.6098 21.2314 85.7549 21.4155 86.045 21.5605C86.3462 21.6944 86.7089 21.8172 87.1329 21.9287C87.5569 22.0292 87.9809 22.1631 88.4049 22.3304C88.8289 22.4866 89.1859 22.7544 89.476 23.1338C89.7773 23.5132 89.9279 23.9874 89.9279 24.5564C89.9279 25.4156 89.6044 26.0795 88.9572 26.5481C88.3212 27.0056 87.5234 27.2343 86.5638 27.2343C84.8455 27.2343 83.6739 26.5704 83.0491 25.2426L84.9236 24.1882C85.1691 24.9135 85.7158 25.2761 86.5638 25.2761C87.3337 25.2761 87.7187 25.0362 87.7187 24.5564C87.7187 24.3333 87.568 24.1547 87.2668 24.0208C86.9767 23.8758 86.6196 23.7475 86.1956 23.6359C85.7716 23.5243 85.3476 23.3848 84.9236 23.2175C84.4996 23.0501 84.137 22.7879 83.8357 22.4308C83.5456 22.0626 83.4006 21.6052 83.4006 21.0584C83.4006 20.2327 83.7018 19.5856 84.3044 19.1169C84.918 18.6372 85.6768 18.3973 86.5806 18.3973C87.2612 18.3973 87.8805 18.5535 88.4384 18.8659C88.9962 19.1672 89.437 19.6023 89.7606 20.1714L87.9195 21.1756C87.6517 20.6065 87.2054 20.322 86.5806 20.322C86.3016 20.322 86.0673 20.3834 85.8776 20.5061C85.6991 20.6288 85.6098 20.7962 85.6098 21.0082ZM95.858 20.7069H93.9667V24.1882C93.9667 24.4783 94.0393 24.6903 94.1843 24.8242C94.3294 24.9581 94.5414 25.0362 94.8203 25.0585C95.0993 25.0697 95.4452 25.0641 95.858 25.0418V27C94.374 27.1674 93.3252 27.0279 92.7115 26.5816C92.109 26.1353 91.8077 25.3375 91.8077 24.1882V20.7069H90.3516V18.6316H91.8077V16.9412L93.9667 16.2884V18.6316H95.858V20.7069ZM104.249 25.9623C103.389 26.8103 102.341 27.2343 101.102 27.2343C99.8636 27.2343 98.8148 26.8103 97.9556 25.9623C97.1076 25.1032 96.6836 24.0543 96.6836 22.8158C96.6836 21.5773 97.1076 20.534 97.9556 19.686C98.8148 18.8268 99.8636 18.3973 101.102 18.3973C102.341 18.3973 103.389 18.8268 104.249 19.686C105.108 20.534 105.537 21.5773 105.537 22.8158C105.537 24.0543 105.108 25.1032 104.249 25.9623ZM99.4787 24.4727C99.9138 24.9079 100.455 25.1255 101.102 25.1255C101.749 25.1255 102.29 24.9079 102.726 24.4727C103.161 24.0376 103.378 23.4853 103.378 22.8158C103.378 22.1463 103.161 21.594 102.726 21.1588C102.29 20.7237 101.749 20.5061 101.102 20.5061C100.455 20.5061 99.9138 20.7237 99.4787 21.1588C99.0547 21.594 98.8427 22.1463 98.8427 22.8158C98.8427 23.4853 99.0547 24.0376 99.4787 24.4727ZM116.312 18.3973C117.271 18.3973 118.036 18.7097 118.605 19.3345C119.185 19.9594 119.475 20.7962 119.475 21.8451V27H117.316V21.9957C117.316 21.4936 117.193 21.1031 116.948 20.8241C116.702 20.5452 116.356 20.4057 115.91 20.4057C115.419 20.4057 115.034 20.5675 114.755 20.8911C114.487 21.2146 114.354 21.6833 114.354 22.2969V27H112.194V21.9957C112.194 21.4936 112.072 21.1031 111.826 20.8241C111.581 20.5452 111.235 20.4057 110.789 20.4057C110.309 20.4057 109.924 20.5675 109.634 20.8911C109.355 21.2146 109.215 21.6833 109.215 22.2969V27H107.056V18.6316H109.215V19.5186C109.717 18.7711 110.493 18.3973 111.542 18.3973C112.568 18.3973 113.327 18.7989 113.818 19.6023C114.376 18.7989 115.207 18.3973 116.312 18.3973ZM123.133 23.7028C123.423 24.7517 124.21 25.2761 125.493 25.2761C126.319 25.2761 126.943 24.9972 127.367 24.4393L129.108 25.4435C128.282 26.6374 127.066 27.2343 125.459 27.2343C124.076 27.2343 122.966 26.8159 122.129 25.9791C121.292 25.1422 120.874 24.0878 120.874 22.8158C120.874 21.5549 121.286 20.5061 122.112 19.6693C122.938 18.8213 123.998 18.3973 125.292 18.3973C126.519 18.3973 127.529 18.8213 128.321 19.6693C129.125 20.5173 129.527 21.5661 129.527 22.8158C129.527 23.0947 129.499 23.3904 129.443 23.7028H123.133ZM123.1 22.0292H127.367C127.245 21.4601 126.988 21.0361 126.598 20.7572C126.218 20.4782 125.783 20.3387 125.292 20.3387C124.712 20.3387 124.232 20.4894 123.853 20.7906C123.473 21.0807 123.222 21.4936 123.1 22.0292ZM133.193 20.0709C133.394 19.5354 133.723 19.1337 134.18 18.8659C134.649 18.5981 135.168 18.4642 135.737 18.4642V20.8743C135.078 20.7962 134.487 20.9301 133.963 21.276C133.449 21.6219 133.193 22.1965 133.193 22.9999V27H131.034V18.6316H133.193V20.0709Z" fill="black"/>
<path d="M141.784 26.6429C141.288 27.1389 140.693 27.3868 139.999 27.3868C139.305 27.3868 138.71 27.1389 138.214 26.6429C137.718 26.147 137.47 25.552 137.47 24.8577C137.47 24.1634 137.718 23.5683 138.214 23.0724C138.71 22.5765 139.305 22.3286 139.999 22.3286C140.693 22.3286 141.288 22.5765 141.784 23.0724C142.28 23.5683 142.528 24.1634 142.528 24.8577C142.528 25.552 142.28 26.147 141.784 26.6429Z" fill="#1D6AFF"/>
</svg>
