<svg xmlns="http://www.w3.org/2000/svg" viewBox="0 0 1863.99 575.27"><defs><style>.cls-1{fill:none;stroke:#000;stroke-miterlimit:10;stroke-width:2px;}.cls-2{fill:#333cc1;}.cls-3{fill:#fda741;}</style></defs><title>Asset 2</title><g id="Layer_2" data-name="Layer 2"><g id="Layer_8" data-name="Layer 8"><line class="cls-1" x1="1" y1="575" x2="1" y2="574.27"/><path class="cls-1" d="M93.46,2.12A81.43,81.43,0,0,0,83,1.46"/><path class="cls-1" d="M86.5,574.19c-1.15.06-2.3.08-3.46.08"/><path class="cls-1" d="M1.19,497.76c-.13-1.82-.19-3.67-.19-5.53"/><path class="cls-2" d="M575.27,522.68A52.31,52.31,0,0,1,523,575H82.24c-45.27,0-82-35-82-78.24V100h0c0-1.16,0-2.33,0-3.5C.27,43.18,37,0,82.24,0a69.74,69.74,0,0,1,8.09.47h165.9l.48.06a52.32,52.32,0,0,1,0,103.57v1h-99.5a52.31,52.31,0,0,0-52.31,52.31V421.55l.12,0a52.31,52.31,0,0,0,52.19,48.79H523A52.31,52.31,0,0,1,575.27,522.68Z"/><path class="cls-1" d="M86.53,574.27l0-.08"/><path class="cls-1" d="M93.51,1.46c0,.22,0,.45-.05.66"/><line class="cls-1" x1="1" y1="575" x2="1" y2="574.27"/><path class="cls-3" d="M523,172.83V217.2H157.21V172.83a21.49,21.49,0,0,1,21.49-21.49H501.47A21.49,21.49,0,0,1,523,172.83Z"/><path class="cls-3" d="M157.21,253.64v144.8a21.48,21.48,0,0,0,21.49,21.48H501.47A21.48,21.48,0,0,0,523,398.44V253.64ZM471.1,314.36H418.79v-31.3H471.1Z"/><path class="cls-2" d="M720.6,321.72c-.43,15.38-5.92,49.36-47.3,49.36-41,0-49.65-29.9-49.65-77.31,0-53.76,17.06-76.7,51-76.7,39.64,0,45.49,30.32,45.92,48h-34c-.28-8.3-.5-21.15-12.43-21.15-11.7,0-14.72,13.57-14.72,49.93,0,31.92,1.79,50.58,14.3,50.58,11.63,0,12.36-13.83,12.79-22.75Z"/><path class="cls-2" d="M817.84,332c0,19,0,30.48.22,36.27H786.15a101.36,101.36,0,0,1-1.33-11.73c-5.75,10.11-13.82,13.63-25.62,13.63-17.1,0-28.45-8.66-28.45-34.32v-83.3h33.62v77.07c0,9.09,1.83,13.73,8.93,13.73,7.6,0,10.92-4.37,10.92-17.46V252.57h33.62Z"/><path class="cls-2" d="M858.8,332.38c.16,7.05,2.76,14.16,11.25,14.16,6.61,0,9.5-3.65,9.5-9.46,0-6.57-3-10-15.59-14.58-26.87-9.82-34.4-19-34.4-37.37,0-17.4,10.6-34.6,39.69-34.6,33.88,0,40.13,21.65,40.13,36.22H879.09c0-5.21-.76-13.27-9.58-13.27-5.31,0-8.13,3.34-8.13,8.44,0,6.05,3.41,9,16.68,13.81,24.64,9,34.05,18.87,34.05,37.28,0,23.35-13.53,37.26-42.7,37.26-31.71,0-41.95-18.42-42.18-37.89Z"/><path class="cls-2" d="M912.7,252.57h13.81V225.26h33.24v27.31h15.92v26.57H959.75V334.5c0,6.14,1.41,9.2,8.78,9.2a26.41,26.41,0,0,0,5.38-.36v24.07c-5.83,2.2-14.16,2.42-18.73,2.42-21.75,0-29-8.28-29-29.55V279.14H912.7Z"/><path class="cls-2" d="M1070.89,309.2c0,45.9-18,61.21-46.23,61.21-27.24,0-45.19-15-45.19-60.63,0-43.86,19.85-59.11,46.35-59.11C1053.29,250.67,1070.89,267.44,1070.89,309.2Zm-57.35.36c0,24.88,2.37,34.85,12,34.85,9.14,0,11.28-10.13,11.28-34.79,0-25.35-2.6-32.81-11.5-32.81S1013.54,284.84,1013.54,309.56Z"/><path class="cls-2" d="M1082.51,288.36c0-22.71-.08-30.87-.3-35.79h31.92a69.52,69.52,0,0,1,.95,10.62c5.67-8,13.63-12.52,24.85-12.52,13.32,0,19.89,6.11,23.18,14.1,4.92-7.08,13.15-14.1,28.08-14.1,18.11,0,29.19,11.05,29.19,34.85v82.77h-33V289.47c0-7-2.17-12.13-8.91-12.13-7.73,0-10.35,5.57-10.35,16.88v74.07H1135V289.67c0-8.36-3-12.19-9-12.19-7.58,0-10.34,5-10.34,17.11v73.7h-33.17Z"/><path class="cls-2" d="M1265.28,318.48c0,15.07,1.48,26.61,11.94,26.61,9.39,0,10.78-7.73,11.14-13h32.15c-.83,7.76-4.25,38.33-44,38.33-38.46,0-44.75-29.39-44.75-60.82,0-39,15.63-58.92,45.42-58.92,34.19,0,44,23.16,44,55.15,0,3.94-.15,10.28-.29,12.66Zm22.85-21.31c0-11.25-.51-21.71-11-21.71s-11.57,11-11.57,21.71Z"/><path class="cls-2" d="M1332.5,291.91c0-19.62-.08-31.51-.29-39.34h32.14a177.16,177.16,0,0,1,.74,18.79c4-12.6,14-20.77,29.38-20.69V287c-19.72-.43-28.35,4.61-28.35,25.16v56.09H1332.5Z"/><path class="cls-3" d="M1407.23,219H1447c23.66,0,40.3,14.75,40.3,42.12,0,27-15,43.38-42.64,43.38h-19v63.83h-18.36Zm18.36,70.21h17c17.32,0,26-9.1,26-28.29,0-16.2-8.44-26.52-24.22-26.52h-18.84Z"/><path class="cls-3" d="M1564.75,347.61c0,6.72.56,16.86.88,20.68h-16.48a71.83,71.83,0,0,1-1.1-12.28c-4.16,8.74-12.38,14.26-26.24,14.26-21.52,0-29.38-16.88-29.38-32.54,0-21,14.22-36,43.4-36a104.46,104.46,0,0,1,11.2.34v-14.4c0-8.32-1.5-18.72-15.9-18.72-15.32,0-16.4,10.84-17.06,18.32h-17.34c.44-16.1,8.12-32.8,35-32.8,22.2,0,33,10.62,33,31.42ZM1547.45,316a67.64,67.64,0,0,0-10.56-.55c-18.9,0-26.5,9-26.5,20.84,0,9.64,5,18.8,16.54,18.8,15.76,0,20.52-11.24,20.52-33.48Z"/><path class="cls-3" d="M1592.11,256.29c11.32,44.76,20.34,77.74,21.78,90h.22c2.28-13.46,11.84-50.74,21.88-90h18.52l-32.66,117.54c-9.18,33.2-18.62,37.14-34.46,37.14a43,43,0,0,1-8.38-.76V394.39a45.69,45.69,0,0,0,7.52.56c11.36,0,14.64-7.4,18.84-24.5l-33-114.16Z"/><path class="cls-3" d="M1753.89,306.18c0-27.38.44-55.56.88-71.52h-.42c-5.42,26.3-18,86.19-29.5,133.63h-17.32c-8.62-41.8-21.76-106.11-27.1-134h-.64c.88,17.38,1.54,50,1.54,75.6v58.35h-17.16V219h27.38c11.26,45.83,22,99.85,25.48,119.79h.22c2.84-16.92,16.38-75.72,27.52-119.79h27V368.29h-17.88Z"/><path class="cls-3" d="M1805.73,316c0,20.44,3.36,39,20.46,39,16.66,0,18.8-15.54,19.36-19h17.56c-.32,3-3.34,34.4-37.12,34.4s-38.32-30.28-38.32-58.24c0-35.46,12.4-57.7,39.12-57.7,30,0,37.2,24.26,37.2,52.48,0,2.48-.1,6.52-.32,9.12Zm40.3-13.86c0-17.64-3.54-32.46-19.36-32.46-19.38,0-20.38,24.7-20.62,32.46Z"/></g></g></svg>