<svg width="33" height="23" viewBox="0 0 33 23" fill="none" xmlns="http://www.w3.org/2000/svg">
<path d="M29.3022 0.140625H3.59851C1.61432 0.140625 0 1.75494 0 3.73913V19.1613C0 21.1455 1.61432 22.7598 3.59851 22.7598H29.3022C31.2863 22.7598 32.9007 21.1455 32.9007 19.1613V3.73913C32.9007 1.75494 31.2863 0.140625 29.3022 0.140625ZM3.59851 2.19692H29.3022C30.1525 2.19692 30.8444 2.88879 30.8444 3.73913V5.79543H2.05629V3.73913C2.05629 2.88879 2.74817 2.19692 3.59851 2.19692ZM29.3022 20.7035H3.59851C2.74817 20.7035 2.05629 20.0117 2.05629 19.1613V7.85172H30.8444V19.1613C30.8444 20.0117 30.1525 20.7035 29.3022 20.7035Z" fill="white"/>
</svg>
