<svg version="1.1" id="Capa_1" xmlns="http://www.w3.org/2000/svg" xmlns:xlink="http://www.w3.org/1999/xlink" x="0px"
    y="0px" viewBox="0 0 480 480" style="enable-background:new 0 0 480 480;" xml:space="preserve">
    <g>
        <path d="M440,40H40C17.92,40.026,0.026,57.92,0,80v320c0.026,22.08,17.92,39.974,40,40h400c22.08-0.026,39.974-17.92,40-40V80
			C479.974,57.92,462.08,40.026,440,40z M16,200h136c13.255,0,24,10.745,24,24v32c0,13.255-10.745,24-24,24H16V200z M464,400
			c0,13.255-10.745,24-24,24H40c-13.255,0-24-10.745-24-24V296h136c22.08-0.026,39.974-17.92,40-40v-32
			c-0.026-22.08-17.92-39.974-40-40H16V80c0-13.255,10.745-24,24-24h400c13.255,0,24,10.745,24,24V400z" />
    </g>
    <g>
        <path d="M136,208c-17.673,0-32,14.327-32,32s14.327,32,32,32s32-14.327,32-32S153.673,208,136,208z M136,256
			c-8.837,0-16-7.163-16-16s7.163-16,16-16s16,7.163,16,16S144.837,256,136,256z" />
    </g>
</svg>
